# xmcd CD database file
#
# Track frame offsets:
#	150
#	15788
#	28352
#	44319
#	50234
#	66443
#	78367
#	88207
#	102332
#	115162
#	140293
#	158520
#	186457
#	205318
#
# Disc length: 3006 seconds
#
# Revision: 0
# Processed by: cddbd v1.5.2PL0 Copyright (c) Steve Scherf et al.
# Submitted via: CDex 1.40Beta8
#
DISCID=c10bbc0e
DTITLE=Various Artist - Blues Legends
DYEAR=2006
DGENRE=Blues
TTITLE0=Goodmorning Little School Girl -Fred McDowell (Mississippi)
TTITLE1=I Cried for You -Big Maybelle 
TTITLE2=Cow Cow Blues -Memphis Slim 
TTITLE3=Big Fat Woman -Leadbelly 
TTITLE4=The Other Night Blues -B.B. King 
TTITLE5=Lonesome Dog -Lightin' Hopkins 
TTITLE6=First Time I met the Blues -Buddy Guy 
TTITLE7=Blues Is My Middle Name -Ray Charles 
TTITLE8=Big Legged Woman -Charles Brown 
TTITLE9=Boogie Woogie Blues -Roy Brown 
TTITLE10=Fanny Mae -James Cotton Band 
TTITLE11=Barrelhouse Blues -Johnny Otis 
TTITLE12=Jumping the Blues -Jimmy McGriff 
TTITLE13=You've Done Lost Your Good Thing Now -B.B. King 
EXTD=YEAR: 2006 ID3G: 0
EXTT0=
EXTT1=
EXTT2=
EXTT3=
EXTT4=
EXTT5=
EXTT6=
EXTT7=
EXTT8=
EXTT9=
EXTT10=
EXTT11=
EXTT12=
EXTT13=
PLAYORDER=
